<svg xmlns="http://www.w3.org/2000/svg" width="60" height="60"><g transform="translate(-900 -965)"><rect width="60" height="60" fill="#fff" rx="30" transform="translate(900 965)"/><g fill="none" stroke="#e8e8e8" transform="translate(900 965)"><rect width="60" height="60" stroke="none" rx="30"/><rect width="59" height="59" x=".5" y=".5" rx="29.5"/></g><g stroke="#000" stroke-width=".25"><path d="M936.273 1001.133a.984.984 0 0 0 .982.982h6.855a.983.983 0 0 0 0-1.965h-6.855a.984.984 0 0 0-.982.983Zm8.209 0a.363.363 0 0 1-.364.364h-6.855a.364.364 0 1 1 0-.727h6.855a.363.363 0 0 1 .364.364"/><path d="m947.91 995.772-.01-.039a38.8 38.8 0 0 0-1.215-5.222c-.557-1.122-1.215-1.71-1.9-1.71-.789 0-1.532.271-2.592 1.571-.24.294-.418.542-.573.743-.48.658-.58.789-1.292.789h-.108a5.509 5.509 0 0 1-3.32-1.004c-.279-.178-.526-.34-.743-.48-.193-.124-.364-.24-.518-.34.317-.758 1.068-2.971-.41-3.745-1.391-.729-3.129-.25-4.629 1.282a9.6 9.6 0 0 0-1.362 1.648l-.023.031a30.592 30.592 0 0 0-5.427 2.994 7.983 7.983 0 0 0-2.182 2.167 8.653 8.653 0 0 1-2.553.99c-1.857.387-3.977.781-4.541.8-.085 0-.163.008-.24.008a1.778 1.778 0 0 0-1.563.6 2.932 2.932 0 0 0-.549 1.014 8.944 8.944 0 0 0-.147 1.083 2.51 2.51 0 0 0 .107 1.059c.17.379.364.627 1.37 1.269a15.759 15.759 0 0 0 3.3 1.37 23.692 23.692 0 0 0 4.6.99c2.329.232 4.634.263 5.524.263h17.732c.1-.008 2.507-.193 3.048-1.687.51-1.362.231-6.235.216-6.444Zm-.658-.178a3.031 3.031 0 0 0-.742-.394 3.984 3.984 0 0 0-2.166.147 4.38 4.38 0 0 1-.224.054c-.163.039-.627.139-1.277.279-.967.209-2.313.5-3.652.8a17.9 17.9 0 0 1 1.818-1.95 12.154 12.154 0 0 1 3.536-2.282 5.72 5.72 0 0 1 1.965-.228c.279 1.121.58 2.68.743 3.574Zm-11.426-4.65c.217.139.464.3.75.487a6.057 6.057 0 0 0 3.644 1.1h.124c1.021 0 1.277-.348 1.787-1.044.155-.209.325-.441.549-.72 1.006-1.238 1.594-1.346 2.112-1.346.418 0 .913.5 1.346 1.37a4.122 4.122 0 0 1 .209.6 6.089 6.089 0 0 0-2.011.271 11.742 11.742 0 0 0-3.11 1.872 32.742 32.742 0 0 1-8-1.795 4.677 4.677 0 0 1-.008-1.052.823.823 0 0 1 .874-.534c.534.002.908.247 1.734.791Zm-4.782-2.878c.487-.5 2.221-2.05 3.907-1.168.959.5.426 2.2.155 2.886a2.172 2.172 0 0 0-1.006-.248 1.434 1.434 0 0 0-1.447.921 3.231 3.231 0 0 0-.062 1.006 7.819 7.819 0 0 1-2.352-1.547c-.1-.116-.178-.209-.248-.286a1.73 1.73 0 0 1-.131-.155 8.769 8.769 0 0 1 1.184-1.408Zm-6.87 4.727c.039-.031.077-.054.116-.085l.65 1.052a.322.322 0 0 0 .263.147.326.326 0 0 0 .163-.046.305.305 0 0 0 .1-.426l-.673-1.083c.279-.186.565-.371.866-.549l.665 1.075a.322.322 0 0 0 .263.147.326.326 0 0 0 .163-.046.305.305 0 0 0 .1-.426l-.658-1.06c.3-.17.611-.333.905-.487l.688 1.114a.322.322 0 0 0 .263.147.326.326 0 0 0 .163-.046.305.305 0 0 0 .1-.426l-.658-1.068c.789-.395 1.447-.688 1.741-.82a1.59 1.59 0 0 0 .116.131c.07.077.147.17.248.278a9.444 9.444 0 0 0 3.048 1.926 24.721 24.721 0 0 0 5.485 1.509c.921.163 1.733.271 2.275.333a20.612 20.612 0 0 0-2.35 2.616c-1.253.286-2.422.565-3.165.781a11.414 11.414 0 0 1-4.031.325 6.615 6.615 0 0 0-.61-1.006 7.572 7.572 0 0 0-2.491-1.857 3.53 3.53 0 0 0-2.519-.223l-.131.023a6.692 6.692 0 0 0-1.014.333 3.843 3.843 0 0 1-1.331.364c-.333-.023-.611-.472-.735-.735a8.275 8.275 0 0 1 1.981-1.911Zm-4.99 3.273a9.434 9.434 0 0 0 2.53-.944 1.8 1.8 0 0 0 .155.248 1.4 1.4 0 0 0 1.006.681 4.037 4.037 0 0 0 1.609-.4 5.615 5.615 0 0 1 .905-.3l.131-.023a2.979 2.979 0 0 1 2.135.178 7.123 7.123 0 0 1 2.267 1.679 4.724 4.724 0 0 1 .34.526 10.969 10.969 0 0 1-2.313-.619l-.178-.077c-1.106-.487-1.842-.812-2.414-.325a2.544 2.544 0 0 0-.542.975c-.178.449-.418 1.06-.681 1.044-.24-.015-.464-.255-.727-.526a2.335 2.335 0 0 0-1.547-.913c-.41-.023-1.222-.008-2.166.008a26.575 26.575 0 0 1-4.286-.1 8.1 8.1 0 0 1-.789-.271c.982-.093 4.193-.758 4.564-.836Zm-6.53 3.6a2.559 2.559 0 0 1-.023-.642 9.742 9.742 0 0 1 .124-.982 2.348 2.348 0 0 1 .418-.766l.008-.008a.889.889 0 0 1 .387-.294 4.4 4.4 0 0 0 1.664.766 24.4 24.4 0 0 0 4.472.131c.928-.015 1.733-.031 2.12-.008a1.755 1.755 0 0 1 1.137.72 1.782 1.782 0 0 0 1.13.72h.062c.673 0 .99-.8 1.238-1.439a2.321 2.321 0 0 1 .364-.727c.271-.224.766-.023 1.772.418l.178.077a13.344 13.344 0 0 0 3.072.75 10.287 10.287 0 0 0 1.37.085 11.529 11.529 0 0 0 3.079-.41c1.694-.48 5.625-1.331 7.744-1.787.65-.139 1.13-.248 1.292-.286.07-.015.155-.038.24-.062a3.747 3.747 0 0 1 1.8-.163 2.22 2.22 0 0 1 1.029.758c.023.542.046 1.215.046 1.9-1.083 0-4.75.015-6.808 0a53.485 53.485 0 0 0-8.379.758c-1.354.224-2.321.464-3.265.689-.913.224-1.772.426-2.855.588a59.659 59.659 0 0 1-9.408 0 14.173 14.173 0 0 1-4.008-.789Zm34.467 2.344c-.395 1.083-2.352 1.269-2.507 1.284H926.9c-.874 0-3.165-.023-5.462-.255a22.4 22.4 0 0 1-7.621-2.267 6.483 6.483 0 0 1-.271-.178 16.612 16.612 0 0 0 3.064.5c1.478.1 3.621.193 5.617.193a30.683 30.683 0 0 0 3.923-.193c1.114-.163 1.988-.379 2.917-.6s1.88-.457 3.218-.681a52.118 52.118 0 0 1 8.27-.75c2.058.015 5.725.008 6.816 0a11.137 11.137 0 0 1-.255 2.956Z"/></g><g transform="translate(-10 10)"><rect width="20" height="20" fill="red" rx="10" transform="translate(950 955)"/><text fill="#fff" font-family="PPNeueMachina-InktrapMedium, PP Neue Machina" font-size="12" font-weight="500" letter-spacing=".1em" transform="translate(956 969)"><tspan x="0" y="0">4</tspan></text></g></g></svg>