<svg xmlns="http://www.w3.org/2000/svg" width="116.118" height="80"><defs><filter id="a" width="116.118" height="80" x="0" y="0" filterUnits="userSpaceOnUse"><feOffset/><feGaussianBlur result="b" stdDeviation="10"/><feFlood flood-opacity=".102"/><feComposite in2="b" operator="in"/><feComposite in="SourceGraphic"/></filter></defs><g filter="url(#a)" style="mix-blend-mode:difference;isolation:isolate"><path fill="#fff" d="M36.19 49.996a6.857 6.857 0 0 1-4.11-1.374 8.205 8.205 0 0 1-.854-.854 5.335 5.335 0 0 1-.925-1.665c-.605-1.813-.294-4.192.891-6.8a30.312 30.312 0 0 1 5.308-7.525c.4-.452 1.6-1.773 1.608-1.773s-.062.113-.145.251a16.093 16.093 0 0 0-1.649 3.8 6.822 6.822 0 0 0 .188 4.911 4.8 4.8 0 0 0 2.1 2.092c1.526.748 3.76.809 6.488.181.188-.043 9.495-2.514 20.682-5.49s20.342-5.41 20.344-5.408-25.992 11.126-39.486 16.9c-2.137.914-2.709 1.144-3.713 1.5a18.828 18.828 0 0 1-6.727 1.254Z"/></g></svg>